<?xml version="1.0" encoding="UTF-8"?>
<svg width="192px" height="42px" viewBox="0 0 192 42" version="1.1" xmlns="http://www.w3.org/2000/svg" xmlns:xlink="http://www.w3.org/1999/xlink">
    <!-- Generator: Sketch 55.1 (78136) - https://sketchapp.com -->
    <title>logo@2x</title>
    <desc>Created with Sketch.</desc>
    <g id="Page-1" stroke="none" stroke-width="1" fill="none" fill-rule="evenodd">
        <g id="Artboard" transform="translate(-20.000000, -7.000000)">
            <g id="logo" transform="translate(20.861791, 7.000000)">
                <path d="M90.118629,19.67 C89.4839592,19.2959981 88.8067993,18.9900012 88.087129,18.752 C87.3674587,18.5139988 86.7639648,18.395 86.276629,18.395 C85.8912937,18.395 85.5881301,18.4658326 85.367129,18.6075 C85.1461279,18.7491674 85.035629,18.9559986 85.035629,19.228 C85.035629,19.488668 85.1319614,19.7068325 85.324629,19.8825 C85.5172966,20.0581675 85.7552942,20.1998328 86.038629,20.3075 C86.3219637,20.4151672 86.7412929,20.5539992 87.296629,20.724 C88.1239665,20.9620012 88.806793,21.1999988 89.345129,21.438 C89.883465,21.6760012 90.3452937,22.0414975 90.730629,22.5345 C91.1159643,23.0275025 91.308629,23.6706627 91.308629,24.464 C91.308629,25.2573373 91.0989644,25.9344972 90.679629,26.4955 C90.2602936,27.0565028 89.6851327,27.4786653 88.954129,27.762 C88.2231253,28.0453348 87.4099668,28.187 86.514629,28.187 C85.5286241,28.187 84.5454672,28.0141684 83.565129,27.6685 C82.5847908,27.3228316 81.7376326,26.8496697 81.023629,26.249 L82.230629,23.818 C82.8312987,24.3506693 83.5424582,24.7869983 84.364129,25.127 C85.1857998,25.4670017 85.9139592,25.637 86.548629,25.637 C87.013298,25.637 87.3787943,25.5520009 87.645129,25.382 C87.9114637,25.2119992 88.044629,24.9626683 88.044629,24.634 C88.044629,24.3619986 87.9454633,24.1353342 87.747129,23.954 C87.5487947,23.7726658 87.2994638,23.6281672 86.999129,23.5205 C86.6987942,23.4128328 86.2766317,23.2853341 85.732629,23.138 C84.9166249,22.9113322 84.2422983,22.6818345 83.709629,22.4495 C83.1769597,22.2171655 82.7207976,21.8658357 82.341129,21.3955 C81.9614604,20.9251643 81.771629,20.2990039 81.771629,19.517 C81.771629,18.7803297 81.967127,18.1343361 82.358129,17.579 C82.749131,17.0236639 83.3044587,16.5958348 84.024129,16.2955 C84.7437993,15.9951652 85.5796242,15.845 86.531629,15.845 C87.3929666,15.845 88.2429581,15.9668321 89.081629,16.2105 C89.9202999,16.4541679 90.6569592,16.779998 91.291629,17.188 L90.118629,19.67 Z M101.025576,28 L99.291576,24.702 L96.979576,24.702 L96.979576,28 L93.868576,28 L93.868576,16.083 L99.223576,16.083 C100.798917,16.083 102.020072,16.4484963 102.887076,17.1795 C103.75408,17.9105037 104.187576,18.9389934 104.187576,20.265 C104.187576,21.1603378 104.006244,21.9338301 103.643576,22.5855 C103.280908,23.2371699 102.753913,23.7443315 102.062576,24.107 L104.544576,28 L101.025576,28 Z M96.979576,22.22 L99.240576,22.22 C99.8752458,22.22 100.365408,22.0613349 100.711076,21.744 C101.056744,21.4266651 101.229576,20.9676697 101.229576,20.367 C101.229576,19.7889971 101.056744,19.3441682 100.711076,19.0325 C100.365408,18.7208318 99.8752458,18.565 99.240576,18.565 L96.979576,18.565 L96.979576,22.22 Z M107.155523,16.083 L116.556523,16.083 L116.556523,18.565 L110.266523,18.565 L110.266523,20.792 L115.944523,20.792 L115.944523,23.257 L110.266523,23.274 L110.266523,25.518 L116.726523,25.518 L116.726523,28 L107.155523,28 L107.155523,16.083 Z M119.60947,16.083 L122.99247,16.083 L126.44347,23.053 L129.87747,16.083 L133.26047,16.083 L133.26047,28 L130.50647,28 L130.48947,20.452 L127.44647,26.81 L125.44047,26.81 L122.38047,20.452 L122.38047,28 L119.60947,28 L119.60947,16.083 Z" id="TROTERSREM" fill="#B23E35" fill-rule="nonzero"></path>
                <path d="M-1.42108547e-14,16.083 L10.217,16.083 L10.217,18.65 L6.647,18.65 L6.647,28 L3.536,28 L3.536,18.65 L-1.42108547e-14,18.65 L-1.42108547e-14,16.083 Z M19.610947,28 L17.876947,24.702 L15.564947,24.702 L15.564947,28 L12.453947,28 L12.453947,16.083 L17.808947,16.083 C19.3842882,16.083 20.6054427,16.4484963 21.472447,17.1795 C22.3394513,17.9105037 22.772947,18.9389934 22.772947,20.265 C22.772947,21.1603378 22.5916155,21.9338301 22.228947,22.5855 C21.8662785,23.2371699 21.3392838,23.7443315 20.647947,24.107 L23.129947,28 L19.610947,28 Z M31.418894,15.896 C32.6315667,15.896 33.7280558,16.1623307 34.708394,16.695 C35.6887322,17.2276693 36.4593912,17.958662 37.020394,18.888 C37.5813968,19.817338 37.861894,20.8599942 37.861894,22.016 C37.861894,23.1833392 37.5813968,24.2373286 37.020394,25.178 C36.4593912,26.1186714 35.6887322,26.8609973 34.708394,27.405 C33.7280558,27.9490027 32.6315667,28.221 31.418894,28.221 C30.2062213,28.221 29.1097322,27.951836 28.129394,27.4135 C27.1490558,26.875164 26.3783968,26.1328381 25.817394,25.1865 C25.2563912,24.2401619 24.975894,23.1833392 24.975894,22.016 C24.975894,20.8599942 25.2563912,19.817338 25.817394,18.888 C26.3783968,17.958662 27.1490558,17.2276693 28.129394,16.695 C29.1097322,16.1623307 30.2062213,15.896 31.418894,15.896 Z M31.452894,18.531 C30.8635577,18.531 30.3167299,18.6839985 29.812394,18.99 C29.3080581,19.2960015 28.9085621,19.718164 28.613894,20.2565 C28.3192259,20.794836 28.171894,21.3869968 28.171894,22.033 C28.171894,22.6903366 28.3220592,23.288164 28.622394,23.8265 C28.9227288,24.364836 29.3222248,24.7898318 29.820894,25.1015 C30.3195632,25.4131682 30.8635577,25.569 31.452894,25.569 C32.0422303,25.569 32.5833915,25.4131682 33.076394,25.1015 C33.5693965,24.7898318 33.9575593,24.364836 34.240894,23.8265 C34.5242288,23.288164 34.665894,22.6903366 34.665894,22.033 C34.665894,21.3869968 34.5242288,20.794836 34.240894,20.2565 C33.9575593,19.718164 33.5693965,19.2960015 33.076394,18.99 C32.5833915,18.6839985 32.0422303,18.531 31.452894,18.531 Z M38.959841,16.083 L49.176841,16.083 L49.176841,18.65 L45.606841,18.65 L45.606841,28 L42.495841,28 L42.495841,18.65 L38.959841,18.65 L38.959841,16.083 Z M51.413788,16.083 L60.814788,16.083 L60.814788,18.565 L54.524788,18.565 L54.524788,20.792 L60.202788,20.792 L60.202788,23.257 L54.524788,23.274 L54.524788,25.518 L60.984788,25.518 L60.984788,28 L51.413788,28 L51.413788,16.083 Z M71.024735,28 L69.290735,24.702 L66.978735,24.702 L66.978735,28 L63.867735,28 L63.867735,16.083 L69.222735,16.083 C70.7980762,16.083 72.0192307,16.4484963 72.886235,17.1795 C73.7532393,17.9105037 74.186735,18.9389934 74.186735,20.265 C74.186735,21.1603378 74.0054035,21.9338301 73.642735,22.5855 C73.2800665,23.2371699 72.7530718,23.7443315 72.061735,24.107 L74.543735,28 L71.024735,28 Z M15.564947,22.22 L17.825947,22.22 C18.4606168,22.22 18.9507786,22.0613349 19.296447,21.744 C19.6421154,21.4266651 19.814947,20.9676697 19.814947,20.367 C19.814947,19.7889971 19.6421154,19.3441682 19.296447,19.0325 C18.9507786,18.7208318 18.4606168,18.565 17.825947,18.565 L15.564947,18.565 L15.564947,22.22 Z M66.978735,22.22 L69.239735,22.22 C69.8744048,22.22 70.3645666,22.0613349 70.710235,21.744 C71.0559034,21.4266651 71.228735,20.9676697 71.228735,20.367 C71.228735,19.7889971 71.0559034,19.3441682 70.710235,19.0325 C70.3645666,18.7208318 69.8744048,18.565 69.239735,18.565 L66.978735,18.565 L66.978735,22.22 Z" id="Combined-Shape" fill="#525252" fill-rule="nonzero"></path>
                <rect id="Rectangle" fill="#B23E35" x="139.138209" y="5" width="14" height="36" rx="2"></rect>
                <path d="M169.138209,21 C169.138209,20.4477153 169.585924,20 170.138209,20 L190.138209,20 C190.690493,20 191.138209,20.4477153 191.138209,21 L191.138209,25 C191.138209,25.5522847 190.690493,26 190.138209,26 L170.138209,26 C169.585924,26 169.138209,25.5522847 169.138209,25 L167.138209,25 L167.138209,24 L162.138209,24 C159.651174,24 158.138209,22.9913561 158.138209,21 L158.138209,5 C158.138209,2.88561808 157.25259,2 155.138209,2 L150.138209,2 C147.971542,2 147.138209,2.625 147.138209,4 L149.138209,4 L149.138209,5 L143.138209,5 L143.138209,4 L145.138209,4 C145.138209,1.375 146.971542,0 150.138209,0 L155.138209,0 C158.35716,0 160.138209,1.78104858 160.138209,5 L160.138209,21 C160.138209,21.6753105 160.625243,22 162.138209,22 L167.138209,22 L167.138209,21 L169.138209,21 Z M143.138209,41 L149.138209,41 L149.138209,42 L143.138209,42 L143.138209,41 Z" id="Combined-Shape" fill="#3A3A3C"></path>
            </g>
        </g>
    </g>
</svg>